<svg width="41" height="47" viewBox="0 0 41 47" fill="none" xmlns="http://www.w3.org/2000/svg">
<path d="M37.7319 46.3502C37.7607 42.1153 35.3101 41.3196 32.1798 41.8007C28.5307 42.3624 25.0309 43.8227 21.4584 44.8468C18.7781 45.6145 16.1226 46.7191 13.3906 46.9493C8.30555 47.3818 3.57666 45.0659 1.63149 39.2732C1.09733 37.6819 0.884821 35.9856 0.5 34.2183C2.03163 35.2386 3.2397 36.3844 4.689 36.9405C7.01899 37.8373 9.54426 37.5957 11.8398 36.7532C14.9854 35.5925 18.0639 34.2257 21.0812 32.7692C24.447 31.1459 27.6749 29.2662 31.6112 29.2662C36.8398 29.2662 41.1187 32.9901 40.7301 38.9025C40.5522 41.6251 39.4213 44.2838 37.7319 46.3502ZM20.9281 38.3278C25.969 36.4949 30.8454 33.8513 36.7862 36.1635C33.4491 32.4303 25.5536 33.7596 20.9281 38.3278Z" fill="#FF9900"/>
<path d="M4.66423 12.7634C6.30864 11.7965 7.73654 11.1563 8.91992 10.2118C10.5606 8.90524 12.0557 7.40269 13.5246 5.89826C13.855 5.56042 13.9147 4.86981 13.9371 4.33411C13.9913 2.95848 13.9558 1.57911 13.9558 3.05176e-05C14.5158 0.186683 14.9152 0.210948 15.128 0.421866C18.0379 3.31125 21.211 6.00652 23.7738 9.18149C27.8801 14.2622 27.9119 20.6849 24.5092 25.7507C24.5092 24.4329 24.539 22.9266 24.5092 21.4241C24.4849 20.5375 24.2087 19.8487 23.0477 20.446C22.4056 18.2304 22.4448 15.6882 19.8876 14.2864C19.7383 14.9453 19.6301 15.4176 19.4901 16.0317C16.1602 13.6798 12.5149 13.3177 8.72953 13.7564L8.52981 14.2808C9.25216 14.6392 9.94651 15.0835 10.7043 15.3336C12.0669 15.7797 13.5041 16.0223 14.848 16.5076C17.1718 17.3438 18.7043 19.0218 18.9133 21.495C19.1149 23.8972 19.0402 26.333 18.9376 28.7483C18.8853 29.969 18.232 30.8874 17.0132 31.4977C13.9857 33.0171 10.8686 34.1762 7.46029 34.318C6.53307 34.3409 5.60879 34.2046 4.72769 33.9149C1.77671 32.9816 1.24288 29.7171 3.79442 27.214C5.88121 25.1609 8.2741 23.4212 10.4785 21.4857C11.4379 20.6438 12.4085 19.7498 13.1196 18.7083C14.1518 17.2001 13.8046 16.7652 12.0221 16.4199C10.4262 16.1119 8.80419 15.7181 7.3315 15.0573C6.37584 14.6318 5.66842 13.6574 4.66423 12.7634ZM14.512 10.8968C13.7766 10.4059 13.4145 9.96357 13.0972 9.99716C12.6119 10.042 12.1546 10.4115 11.6861 10.6448C11.9941 10.9211 12.2853 11.3915 12.6194 11.4269C13.086 11.4661 13.5862 11.1768 14.512 10.895V10.8968Z" fill="#FF9900"/>
</svg>
